/* XPM */
static char *_4ad31bc4b4b44019b36ae43e21c497cWXliPY9obd0O8LQu[] = {
/* columns rows colors chars-per-pixel */
"64 64 246 2 ",
"   c #4F6152",
".  c #586B59",
"X  c #6A715B",
"o  c #69735C",
"O  c #697862",
"+  c #797D65",
"@  c #98332C",
"#  c #A12D2A",
"$  c #A7332C",
"%  c #A93A34",
"&  c #9B4337",
"*  c #9E543F",
"=  c #A9453B",
"-  c #AA5B3F",
";  c #A9623F",
":  c #9A5C48",
">  c #B24D43",
",  c #B04D46",
"<  c #A75A45",
"1  c #B35346",
"2  c #9C6D4C",
"3  c #A96548",
"4  c #B76948",
"5  c #A9734B",
"6  c #B36D50",
"7  c #A87456",
"8  c #AD7B55",
"9  c #AB7D5C",
"0  c #BB7255",
"q  c #BD745C",
"w  c #B67958",
"e  c #9A7E6B",
"r  c #A87969",
"t  c #B17E64",
"y  c #A87A75",
"u  c #C56945",
"i  c #CA6E4C",
"p  c #C6714D",
"a  c #C77657",
"s  c #C47A5C",
"d  c #C57B63",
"f  c #CB7D64",
"g  c #D17F64",
"h  c #748169",
"j  c #AA804F",
"k  c #A98158",
"l  c #B3835D",
"z  c #B88158",
"x  c #9C8776",
"c  c #9A8971",
"v  c #AD8363",
"b  c #A9866A",
"n  c #B38464",
"m  c #B68966",
"M  c #B48A6D",
"N  c #BA8C6B",
"B  c #B3906A",
"V  c #AC8C73",
"C  c #A68A78",
"Z  c #B38C73",
"A  c #BB8D76",
"S  c #B38D79",
"D  c #AA917C",
"F  c #B59176",
"G  c #B4937B",
"H  c #BB9478",
"J  c #CA875B",
"K  c #D2895A",
"L  c #C78867",
"P  c #CB8C62",
"I  c #D48768",
"U  c #CB936A",
"Y  c #D2946A",
"T  c #D6946A",
"R  c #CF8B73",
"E  c #C89878",
"W  c #D59A77",
"Q  c #E1956E",
"!  c #E19874",
"~  c #CCA07E",
"^  c #D7A17E",
"/  c #B37A80",
"(  c #C27E82",
")  c #7E9A92",
"_  c #8A8F8A",
"`  c #8B998B",
"'  c #979789",
"]  c #869C94",
"[  c #979A95",
"{  c #A28E8A",
"}  c #BC8B82",
"|  c #A49383",
" . c #AD9383",
".. c #A89889",
"X. c #AA9C8C",
"o. c #B39582",
"O. c #BD9984",
"+. c #B69B89",
"@. c #A48F90",
"#. c #A79A94",
"$. c #AB9E93",
"%. c #A39E9C",
"&. c #B29E92",
"*. c #B89B97",
"=. c #97A48E",
"-. c #89A697",
";. c #97A897",
":. c #93AB9B",
">. c #BBA48E",
",. c #ADA294",
"<. c #A2AA96",
"1. c #ACA49C",
"2. c #B3A394",
"3. c #BCA395",
"4. c #B4A995",
"5. c #BBAB94",
"6. c #B3A59B",
"7. c #BBA69B",
"8. c #B5AA9D",
"9. c #BCAB9B",
"0. c #BAB09C",
"q. c #BCB19D",
"w. c #829EB4",
"e. c #8AA8A2",
"r. c #98A8A7",
"t. c #8BA6BB",
"y. c #97A7B4",
"u. c #94ACBD",
"i. c #9AACBC",
"p. c #9CB1B6",
"a. c #A5A6A4",
"s. c #ABA5A2",
"d. c #ACA9A5",
"f. c #AEADAC",
"g. c #B5ABA3",
"h. c #BCADA3",
"j. c #BBA9A7",
"k. c #B3AEAC",
"l. c #A8B5A6",
"z. c #BCB2A4",
"x. c #BBB5A7",
"c. c #B4B1AD",
"v. c #BCB3AC",
"b. c #ADAEB3",
"n. c #ABB5B5",
"m. c #B4B3B3",
"M. c #BBB6B3",
"N. c #BDBAB5",
"B. c #B5B6B9",
"V. c #BBB5BA",
"C. c #B5BABD",
"Z. c #BCBBBB",
"A. c #C59A86",
"S. c #CD9D88",
"D. c #C9A38A",
"F. c #D4A789",
"G. c #C2A393",
"H. c #CBA493",
"J. c #C4AA94",
"K. c #CDAB95",
"L. c #C1A59A",
"P. c #C3AB9C",
"I. c #CAAD9B",
"U. c #D4AC96",
"Y. c #C4B49D",
"T. c #CAB69B",
"R. c #D2B399",
"E. c #E1A388",
"W. c #E2A794",
"Q. c #C3AEA2",
"!. c #CBABA2",
"~. c #C1A7AA",
"^. c #D2AEA5",
"/. c #C3B5A4",
"(. c #CCB4A6",
"). c #C5B9A5",
"_. c #CBBBA4",
"`. c #C3B5AA",
"'. c #C4BAAB",
"]. c #CABDAB",
"[. c #D3B7A6",
"{. c #D4B4AC",
"}. c #C2B6B2",
"|. c #C7B6B4",
" X c #CCB6B4",
".X c #C3BBB4",
"XX c #CABDB4",
"oX c #C3BDBB",
"OX c #C9BEBB",
"+X c #BCC1BC",
"@X c #CCC0AD",
"#X c #D0C1AB",
"$X c #C5C1B5",
"%X c #CAC2B4",
"&X c #C4C2BC",
"*X c #CAC4BC",
"=X c #CBC8BC",
"-X c #D4C1B3",
";X c #D2C3BB",
":X c #8EAAC0",
">X c #94ADC1",
",X c #98B4C7",
"<X c #9AB6C9",
"1X c #9EBBD0",
"2X c #A3B7C6",
"3X c #A3BACC",
"4X c #ABBDCC",
"5X c #B5BCC3",
"6X c #BBBDC3",
"7X c #B7BFC8",
"8X c #BBBFC9",
"9X c #A3BDD2",
"0X c #C3BFC1",
"qX c #CBBEC3",
"wX c #AFC0CF",
"eX c #BDC1C5",
"rX c #B7C3C8",
"tX c #BDC2CA",
"yX c #A9C3D6",
"uX c #B9C8D2",
"iX c #C3C3C4",
"pX c #CAC5C2",
"aX c #C7C8C2",
"sX c #CBC9C4",
"dX c #C3C5CA",
"fX c #CAC6CA",
"gX c #C5C9CD",
"hX c #CBCBCC",
"jX c #D3C7C2",
"kX c #D2CAC4",
"lX c #D1CDCB",
"zX c #CFD0CE",
"xX c #D6D2CD",
"cX c #C6CBD2",
"vX c #C5CCD6",
"bX c #CBCDD2",
"nX c #D1CED1",
"mX c #CDD1D5",
"MX c #C7D3DC",
"NX c #CDD3DA",
"BX c #D2D4D5",
"VX c #D2D5DA",
"CX c #D5D9DE",
"ZX c #D9DAD9",
"AX c #D7DBE1",
"SX c #DADEE2",
/* pixels */
"e x e x c x c...........| M.f.d.f.k.c.1.m.g.&.2.2.2.$.s.b.` [ _ _ _ #.N.g.g.g.g.g.$.V.6.2.2.2.,...k.m.a.a.a.a.%.1.c.X.......' ' ",
"d.d.d.d.1.1.C.m.f.f.k.c.s.V.k.2.k.k.k.6.M.N.k.c.c.c.g.c.}.g.6.2.&.&.6.Z.g.g.g.g.8.2.Z.m.m.c.c.c.s.m.a.[ [ [ [ ' s.M.$.$.$.#...#.",
"X.X.X.,.X.x B.a.d.f.f.f.$.c.9 9 8 v l 9 M.G.A F S G G 6.L.0 4 4 4 ; D oXF F V o.F D 6Xm.c.c.f.c.d.k.) .   . o O ' v.M M b b b x ",
",.,.X.$.X.D 5X$.d.f.f.f.1.M.9 8 9 8 n v M.G.E H G G G 8.L.3 4 p p 3  .oXZ G F G G D iXB.m.m.m.m.d.k.] . . . . h ' M.F Z V c b x ",
",.,.,.,.,.x 6Xf.f.m.m.m.1.N.v 8 l 5 8 9 M.G.E O.o. . .g.!.6 4 4 6 3 o.oXF F o.F F V iXV.N.m.m.m.f.k.] O O o O O ' M.F Z V b C x ",
",.,.,.1.2.| eXm.m.k.m.m.1.oXn M w w 6 8 V.3.A.O.+.+. .g.!.0 p s 6 3 D 0XG O.G G F G iXZ.N.V.B.B.c.k.] O o X O + ' V.F F V C c x ",
",.,.6.6.2.| tXm.m.m.m.B.s.oXF A z z z l N.Q.D.D.>.2.&.g.^.L J s p s o.iXH H H H O.o.dXeXV.Z.Z.V.m.m.-.h h o X h ' N.F F F V C x ",
",.,.,.6.,.| dXm.m.m.m.m.1.oXG A A H A F oX`.Q.P.9.h.2.v. XS.H.A.A.} 3.fX7.9.7.h.h.2.dXiXZ.Z.V.V.c.M.b.[ ' ' ' ' 1.Z.&.&.&.&.X.' ",
"B.B.B.C.m.k.eXC.B.C.C.V.c.dXiXZ.oX0XoXM.dXhXiXiXiXiXZ.iXhXiXiXiXiXoXN.bXOXOXOX0XOXN.hXdXeX6X6X6Xm.eXdXZ.N.N.N.M.M.iXm.k.k.k.k.d.",
"D  . .G  .| j.& & & = < r iX9.5.>./.).5.oX.X'.'.'.'.`.v.*X/.)./.Y.J.5.sXP P P E U H gX:Xt.t.t.u.t.M.iXv.v.v.v.c.,.OXr 2 7 7 r C ",
"b S S G S C j.@ = = % = r iX9.Y.Y.P.Y.5.&XXX'.'.)..X'.v.sXY././.Y.K.9.sXJ U U J P N hX>Xt.w.t.t.t.M.pXv.M.c.v.c.1.oXV 2 l 7 M C ",
"Z S V o.S C ~.% % % = @ r dXz.q./.Y.).5.&X%X].'.'././.M.kXT.).Y.Y.Y.9.hXU E P P K E hX<Xt.t.:Xt.y.N.sX`.v.v.c.v.1.oX9 7 8 8 M V ",
"V G S o.S D ~.= = 1 1 @ r hXq././.).).q.pX%X].].'.).Y.M.lX_._.T.T.Y.9.fXJ J P K K U hX3Xt.u.u.i.y.N.sXv.`.z.h.h.6.OX8 5 z l v V ",
"b  .Z Z S C ~.> > 1 > % r hXY./.).'.'.z.sX%X].]./.).'.N.lXT._.T.T.T.9.sXP P P J U E dX<Xu.i.>Xi.y.M.sX`.}.v.v.M.6.pXm l m 8 8 b ",
"b r b Z o.D j., > 1 1 % r gXz.z.).'.).h.pX%X'._./.'.).M.kX/.)._.Y.Y.9.jXU U U z L H &X2Xi.p.n.p.r.c.&Xh.Q.h.h.v.6.&XM l n n n b ",
"M.V.m.V.M.c.dXM.m.M.V.m.k.gXgXdXgXhXgXoXhXbXhXhXhXhXiXdXmXhXhXhXgXdX&XmXhXhXpXoX&XoXbXhX*X&X&X.XN.dXbXdXdXiXiXZ.V.gXiX6XZ.Z.C.m.",
"} } A H A ..4Xy.y.y.i.i.%.dX2.9.Q.P.I.7.sXgXiXdXdXoX}.N.{.L L I L s +.bX)._./.'.)./.hXXXQ.`.&.o.+.v.sX`././.P.P.8.bXv.v.z.z.v.,.",
"0 0 0 q s | 4Xt.:Xu.>X>X[ hX7.9.L.I.I.3.hXhXdXdXdXoXoX.X{.p u i i u O.BXT.)._.'._.Y.hXXX/.Q./.h.9.M.kX`././.Q.Q.8.mXv.x.v.v.v.6.",
"0 0 0 0 w | wX:Xt.u.u.i.%.bX7.9.Q.I.I.3.hXgXiXiXiXOX.XN.{.u i u i u A.BXI.I.Y..X'./.hXXXQ./.P.P.L.v.kX`././.Q.P.8.mXN.v.M.v.M.6.",
"s s 0 s L | wXt.u.u.u.,X%.hX7.9.P.I.K.G.hXcXtXtXoXoXoXN.{.i i i i 4 O.BX).Y./._.)./.hXXX`.`./.J.>.v.lX`.h./.I.P.7.mXM.M.v.v.c.6.",
"s s 0 d L | wX>Xi.>X>Xi.[ hXL.L.I.I.K.J.hXfXdX8XoXdXiX.X{.a p i i u O.BX'.'._.].].Y.hXOX'.]./.P.J.h.hX`./.(.(.!.8.bXM.v.v.v.c.6.",
"s s d L q | wXi.i.u.u.i.%.hXP.L.9.P.K.J.hXhXiXiXdX}.}.v.^.a i i a i A.BXXX'.].].'./.pX*X]././.J.P.h.hX/.P././.(.3.bXN.v.v.v.v.6.",
"j.~.~.~.7.k.iX5X5X5X5X5Xm.bXiXiXpXiXOX.XbXbXhXhXhXsXiXsXnXOXOXOXOXoX.XBX%XXX=XsX*X'.sX=X%X&X*X&X}.iXbX0XoXiX0XoXM.cX6XZ.Z.Z.V.k.",
"f.f.f.n.f.g.bXiXeXeXdXiXc.fX!.!.!.!.L.2.hX{.^.^.[.[.R.oXBX%X%X$X%X%X'.BX%X_.].%X%X'.hX*X`.z./.Q.2..XmXoXoXoXoXN.g.fXA.A.A A A C ",
"' ' ` ` -.1.bXeXiXiXdXdXg.pXg I I I t M lXW.W Q F.U.^ XXxX].].%X%X=X'.CX_._._._.].Y.hX[.H.G.3.L.3.v.BX.XoXoX.X.X8.0X4 4 4 4 4 9 ",
"' ' ` ` -.1.mXeXiXiXiXdXg.qXf L I L d R lXW.T T W U.F.XXxX].%X*X=X=X).ZX_._._.]._.).hX[.S.G.G.9.7.v.nX}.}.}.}.N.8.fX* * 4 4 4 9 ",
"` ` ` ` ) 1.NXeXeXiXiXdXg.qXf d s d L A bXE.I T T F.F.].zX%X@X=X=X=X'.ZX_.K._.].#XY.hX{.H.G.3.7.7.v.BX.X.XoXoX.Xg.fX< < < 4 4 w ",
"` ] -.-.) 1.NXeXeXeXdXdXg.qXd q g I R A hXW.T ! T ! ^ XXkX%X%X=X=XaXx.ZX_._.@X@X@XT.sX|.G.G.7.8.8.v.VXoX&XoXoXoX8.fXa p 3 4 4 7 ",
"] ] ] ] ] 1.mXeXdXdXdXdXg.OX6 g I I f t hXW.! ! Q E.^ |.xX%X%X=X=X=X'.CXR._.].@X@X_.bX}.D.A.3.7.h.v.BXoX&XoXoXoX8.lXa 4 4 < - 9 ",
"r.r.r.r.r.k.bXeXeXeXiXiXc.fX*.G.H.H.O.*.bX{.R.^.^.[.(.*XBX=XpX=X*X*XoXCX-X*X=X*X%XXXbXpX`.`.`.v.v.oXBXOXiXiX0XZ.k.bX~.*.*.*.*.&.",
"V.N.iXiXN.N.mXiXdXdXdXdXN.BXfXfXdXfXpXoXmXBXhXhXhXbXsXhXCXhXlXlXlXhXpXSXBXhXbXbXhX&XmXsXpXoXpXpXXXiXBXhXfXfXdXiXN.mXiXoXZ.N.N.g.",
"Y.Y.Y./.Y.g.NX&XOXiXiXdXh.BXpXpX*XsXsX}.BXjX;X*XpX*X.XoXBX_._.].%X%X'.SX%X%X=X=X=X'.hXH.Y W Y J I v.BX.XXX.XoXoXh.VXx.).x.q.q.2.",
"/.Y./.).`.h.BXiX&XdXdXdXz.VXiXpXsXsXsX.XBXjX*X*XpX=XOXOXxX].].].@X%X/.SX=X=X=X=X=X].bXK.J K J P L v.BXOXoXXXoXoXh.VX'.'.x.z.z.5.",
"Y.Y./.'.).z.mXiXiXdXdXhXv.VX*XpXpXsXsX}.BXkX;XpX=X*XXX%XBX].].%XXX].).SX%X_.*XaX=XXXbXF.J K P E I `.BXoXXXOXoXoXv.VX/.'.'.x.z.2.",
")./.).).).z.BXiXiXiXdXhXz.VX*X*X=XhXsX}.BXjX;XpXpXpX%X&XZX*X].%X%X@X'.SX%X%X*X=X=X].bXF.K T Y D.H.`.VX%XoXoX.X|.h.VX/.'.x.x.x.4.",
"Y.Y./.'.).z.BXiXiXdXdXhXz.VX*XsX=XsXpX.XBXkX*XpX=X*X%X&XZX*X].].%X%X).SX*X=X=X=X=X].bXU.W U Y W D.v.BXXX.XoXoX|.h.VX'..X).Y.z.4.",
"J.J.).).z.g.mXoX&XiXiXiXz.VX*X*XOXpXiXv.mXsX*X*X*X%X.XoXBX&X$X]._.T./.CX&X$X*X&X&X/.hX[.W E U S.E v.VX.X|.|.}.}.h.NX/.M.x.x.q.2.",
"gXiXgXgX&XiXVXcXcXbXbXcXiXVXNXbXmXNXmXdXVXCXmXmXmXmXhXmXSXNXNXmXNXmXdXSXVXmXmXmXmXdXNXVXbXbXbXbXgXgXCXbXcXbXcXgX6XNXcXgXgXdXoXM.",
"Q.z.Q./.7.h.lX/.I.K.D.K.3.VX*X=XpX*X*X'.BXyX4X4X4X4X4X&XxX(.[.[.{.XX/.CXn.l.l.l.l.<.bXlX*XOX*X*X%X}.MX3X3X3X3X<Xp.NXE H H N n k ",
"!.L.P.h.h.g.jXP.D.E E W +.BX=X=X%X%X=X'.BXyX9X1X1X1X2XZ.jXF.U.U.R.[.P.VXe.-.;.<.l.<.bXhX*X*X%X%X%Xv.MX,X1X<X,X,Xy.mXA.L N U N v ",
"I.L.9.z.8.g.;XJ.D.D.E E +.BX$X%X%X%X=X'.BXyX9X9X9X9X2XZ.jXF.K.K.R.R.P.VXe.-.=.<.l.<.hXlX%X%X%X%XXXv.MX<X,X<X,X,Xr.hXE A Z N N M ",
"L.7.h.v.8.g.XXE E E E E +.BX%X%X%X%X=Xx.BXyX9X3X9X3X2XZ.jXF.F.F.K.K.9.NXe.;.:.l.l.=.hXjXXX%X*X*X%Xz.MX2X<X<Xi.,Xr.hXH m m l B l ",
"P.Q.h.k.1.g.{.L L U U E +.zX].%X%X].].).mXyX9X9X9X9X2XZ.;X~ D.F.K.K.5.NX) -.-.l.l.=.hX-XXXOX%XOXXXh.vX2X<X,X,Xu.r.bXH B m B j k ",
"P.P.L.h.1.6.XXE E E E E +.mXJ._.].].%Xx.bXwX2X4X3X3X2XN.-XY W F.K.I.9.NXe.-.) -.:.c hX-X(.XX*X_.T.h.vXa.r.p.y.[ [ gXB b j j 5 2 ",
"oXoXoXZ.m.C.bX}..X}.}.}.M.mXiXiXiXdXdXZ.mXvXtXtXuXtX5XiXBXOXXX*XpXOXN.NXrXC.5X5XC.m.bXnXpXdXdXpXoXiXmXZ.m.5X5XB.m.bXV.M.M.m.m.g.",
"tXeX6XdX6XM.nXoXOXiXiXOXv.NXrX+X+X+XeXv.VXpXXX*XpX*XXXiXCXhXsXhXhXhXoXCXgXdXgXcXcXiXbXlX%XpXpXpXoXM.VX%X/.].'.&Xz.mXoX.X}.`.`.8.",
"7X5XtXeX5Xk.*XA.A.Q.h.G.2.uXe.:.;.;.l.<.bXU.Y S.^ F.~ }.BXaXaXaXiXaXx.AXdXdXiXiXdXZ.hX;XI.P./.`.`.8.VX'./.'.oXoXv.mX'.Y.z.q.9.5.",
"5X5X5X6X5Xc.sXQ.G.G.L.L.&.uXe.:.;.;.l.=.bXF.W W W W U }.BXaXiX&X&XaXx.AXgXdX6XoXdXZ.hXXXE D.P.`.`.g.VX&X`.oX&XoXv.NX).z.z.9.9.>.",
"7X7X6XeX5Xk.dXv.9.9.P.H &.uXe.:.;.;.;.' bXF.T W Y W A.v.BXiXiX&X&X&Xx.CXdXgXtXtXiXV.hXXXI.D.J.L.L.6.VXoX.XoXoXZ.v.NXY.q.q.z.9.8.",
"5X5X6XtX5Xk.dXz.9.3.3.7...uXe.:.:.:.:.' hXF.W ~ E Y U v.BX*X&XiXiX&Xx.CXtXtXtXtXuXC.dXXXP.D.P.L.L.6.VXoX`.oX&X&Xv.NX/.q.9.5.8.g.",
"5X6XeXeXC.k.dXh.L.L.A.A...uX-.-.:.:.-.' hXU.S.W Y Y P v.VXiX*X&X&X*Xz.VXiXeXtXeXtXV.dXXXv.G.P.P.P.6.VXoXY..XoXZ.x.bXY.0.9.5.8.8.",
"5X5X6X5XB.m.dXh.h.j.7.6.1.uXr.r.r.r.r.;.gXK.H.A.A.E O.M.zX&X.X$X&XoXv.mX.Xv.Z.eX6XM.dXXXh.7.9.h.h.k.bX/.P.z.v.N.c.cX'.z.z.z.g.8.",
"oX6X6X6XC.C.NXcXcXcXcXgXZ.VXvXcXcXbXbX6XNXNXbXbXbXbXiXgXVXbXbXbXbXhXiXCXmXbXbXhXcXeXcXqXV.V.V.V.V.6XmXdXdXdXdXiXC.bXdXiXiXeXeXB.",
"N M 8 t S 1.bXZ.&X.XoXoX6.mXZ.oXoX&X$Xv.hXhXgXdXdXdX6XM.kXG.P.Q./.Q.2.CX*X*X&X&XoXh.iX} @ = = = , @.hX9.z.0.0.h.2.bXeXC.C.C.C.B.",
"L 3 3 7 N 1.gX.XoX.X.XoX6.NXoX&X&XoX$Xx.hXhXiXdXgXdX5XM.*XA.*.3.7.`.2.VX.XXXXX&X.Xk.6X/ @ # # # $ { hX5.0.0.0.0.2.bXeX5X5X5X5XB.",
"n 7 7 t n s.gXN.oX.XoXoX6.NXZ.+XN..X&Xz.hXgXdXdXdXgXeXM.;XH.>.2.&.8.6.VXXXoX&X&X.Xh.6X( $ # $ % % @.hX5.5.0.z.z.,.cXeX5X5XC.C.B.",
"N n l M 7 %.gX}.}.}.oXoX6.NX+XN.+X$X&X8.hXgXdXdXdXdXeXM.kXI.I.h.8.6.,.VXXX&X&X&X.Xh.6X( % $ $ # % { hX7.0.q.0.9.2.bX7X6X5XC.5XB.",
"n M n 5 5 %.dX}.}.M.oXoX,.mXZ.N.Z.N.oXz.gXgXdXdXdXdXeXM.kXI.J.9.h.g.,.VXoX.XoXoX.X9.Z.y # $ $ % % @.hX5.5.0.0.0.,.vXeX6X5X5X5Xn.",
"M M n 3 7 %.iXv.v.v.}.M.$.bXN.N.N.+X+Xz.dXdXiXdXeXiXZ.c.hXJ.J.G.8.g.$.bX'.'.`.'./.>.C.( % % % = % { fX5.5.5.5.9.,.gXZ.m.B.B.B.n.",
"dXtXiXtX5X6XvX8X8XtXtX6XB.NXdXdXdXdXiXV.bXmXdXdXdXdX6XdXNXgXdXdXdXiX6XNXcXdXdXdXdXC.gXcX8XtX8X8X6X6XmXdXtXdXdXtXB.vXgXtXtX7X6Xm.",
"v.v.M.M.g.d.j.y C y } } | mX.X.XoX&XOXv.hXpXoX&X&X&X}.M.VXiXiXiXiX&Xg.nXA.A.S.S.S.Z iXcX6X6X5X6X6Xf.NXN.N.Z.Z.N.g.vXE A M l m v ",
"x.x.x.x.8.s.*.3 < 6 0 q C bXP.v.N.}.`.8.dXXX).).).).q.c.mXeXiXiX&XoX8.nXs a J J P w 6XdX5X6X6X6X6Xd.bXv.N.V.V.V.d.cX+.N M 8 b b ",
"z.x.z.x.g.s.*.3 3 : q d C bXc.N.Z.N.`.9.dX|./.).).).Y.c.mXZ.Z.iXiX6X8.hXs s s s q 7 6XcX6X6X6X5X6Xd.bXM.M.V.Z.V.d.cXA n n v n b ",
"g.z.z.z.8.a.*.3 3 : q q C hXM.N.N.Z.`.8.dX.X'./.).).q.c.bXV.Z.N.Z.Z.1.hX0 0 a a s 0 6XdX6X5X5X5X6Xd.bXM.v.M.V.V.s.cXZ M o.F v v "
};
