/* XPM */
static char *_069c662159f4b77ea247a69252b5982udwTE35Kvwg4fHfc[] = {
/* columns rows colors chars-per-pixel */
"64 64 256 2 ",
"   c #0B3E06",
".  c #055802",
"X  c #135307",
"o  c #096A04",
"O  c #166907",
"+  c #0C7604",
"@  c #187807",
"#  c #1A6413",
"$  c #287609",
"%  c #237C0C",
"&  c #246714",
"*  c #297A15",
"=  c #357C1A",
"-  c #2F6E23",
";  c #377926",
":  c #457C2F",
">  c #1A8506",
",  c #128805",
"<  c #238304",
"1  c #2C8B05",
"2  c #23830B",
"3  c #288808",
"4  c #2B8C0B",
"5  c #348809",
"6  c #338C0B",
"7  c #2C9305",
"8  c #299708",
"9  c #359905",
"0  c #33940B",
"q  c #3A930C",
"w  c #359B0D",
"e  c #3B9C0C",
"r  c #2A8715",
"t  c #328413",
"y  c #338B13",
"u  c #388719",
"i  c #358C1B",
"p  c #3A8D1B",
"a  c #2E9312",
"s  c #2D9818",
"d  c #349314",
"f  c #3B9515",
"g  c #359D14",
"h  c #3C9B13",
"j  c #34931B",
"k  c #3C941C",
"l  c #349C1A",
"z  c #3C9A1C",
"x  c #3AA509",
"c  c #3DA30C",
"v  c #39A314",
"b  c #3CA31B",
"n  c #3D8B22",
"m  c #398827",
"M  c #398C2E",
"N  c #3C9423",
"B  c #3B9627",
"V  c #3D9A23",
"C  c #3EA123",
"Z  c #449B0B",
"A  c #438D17",
"S  c #439C14",
"D  c #489917",
"F  c #41941B",
"G  c #449C1C",
"H  c #509F1D",
"J  c #44A40C",
"K  c #48AA0A",
"L  c #53AC0B",
"P  c #4CB30B",
"I  c #55B40A",
"U  c #43A414",
"Y  c #4CA516",
"T  c #44AA12",
"R  c #4BAC14",
"E  c #43A31B",
"W  c #4AA41D",
"Q  c #44AB1C",
"!  c #4CAB1C",
"~  c #55A918",
"^  c #52AC1C",
"/  c #4DB115",
"(  c #4BB31B",
")  c #57B618",
"_  c #54B31C",
"`  c #67B919",
"'  c #448A28",
"]  c #449425",
"[  c #499423",
"{  c #449B23",
"}  c #4B9B23",
"|  c #45932B",
" . c #4A942C",
".. c #459D2B",
"X. c #4B9C2C",
"o. c #559A2A",
"O. c #539D2C",
"+. c #468A34",
"@. c #518A37",
"#. c #4A9637",
"$. c #4C9C34",
"%. c #529C34",
"&. c #579738",
"*. c #539C3B",
"=. c #619E3D",
"-. c #44A323",
";. c #4BA324",
":. c #45A926",
">. c #4CAB23",
",. c #45A22B",
"<. c #4CA32B",
"1. c #4DAA2B",
"2. c #52A424",
"3. c #5BA525",
"4. c #54AB24",
"5. c #5BAC23",
"6. c #53A42B",
"7. c #5BA42C",
"8. c #54AB2C",
"9. c #5BAC2C",
"0. c #4DB225",
"q. c #55B324",
"w. c #5BB324",
"e. c #55BB26",
"r. c #5CBA24",
"t. c #54B32B",
"y. c #5BB42C",
"u. c #5BBA2B",
"i. c #4BA233",
"p. c #4DAA33",
"a. c #49A439",
"s. c #54A433",
"d. c #5BA434",
"f. c #55AB33",
"g. c #5BAC34",
"h. c #54A43B",
"j. c #5AA43C",
"k. c #54AC3B",
"l. c #5BAC3B",
"z. c #55B233",
"x. c #5CB334",
"c. c #5DBB34",
"v. c #5BB23B",
"b. c #58B53A",
"n. c #68AF2E",
"m. c #63BD25",
"M. c #62B32B",
"N. c #67B728",
"B. c #64BB2C",
"V. c #63A936",
"C. c #63AD3C",
"Z. c #62B435",
"A. c #63BA34",
"S. c #6CBD33",
"D. c #63B43C",
"F. c #6BB539",
"G. c #64BA3B",
"H. c #6BBC3C",
"J. c #73BC3A",
"K. c #5CC317",
"L. c #6AC51E",
"P. c #5EC128",
"I. c #6BC626",
"U. c #64C22C",
"Y. c #6CC32C",
"T. c #6CC333",
"R. c #68C636",
"E. c #65C13B",
"W. c #6CC23B",
"Q. c #77CF31",
"!. c #73C837",
"~. c #72C43C",
"^. c #7BCC3E",
"/. c #528F41",
"(. c #589A44",
"). c #629B47",
"_. c #659D54",
"`. c #54A243",
"'. c #5BA642",
"]. c #5CAB43",
"[. c #58A54C",
"{. c #5CA849",
"}. c #5DB343",
"|. c #5EB448",
" X c #62A444",
".X c #64AD44",
"XX c #66A848",
"oX c #64AB4A",
"OX c #6CAD4B",
"+X c #64B443",
"@X c #6AB444",
"#X c #64BB43",
"$X c #6CBB44",
"%X c #65B44C",
"&X c #6AB44B",
"*X c #66BA4A",
"=X c #6CBB4C",
"-X c #73BC44",
";X c #76B74A",
":X c #73BC4B",
">X c #69AC55",
",X c #71AC50",
"<X c #6BB453",
"1X c #6DBC54",
"2X c #6AB558",
"3X c #73BC54",
"4X c #76B758",
"5X c #73BB5A",
"6X c #76AF67",
"7X c #79BA65",
"8X c #6CC243",
"9X c #68C544",
"0X c #6DC34B",
"qX c #74C443",
"wX c #7AC445",
"eX c #74CA44",
"rX c #73C34C",
"tX c #75CB4B",
"yX c #7BC94A",
"uX c #7CD24B",
"iX c #6DC355",
"pX c #74C353",
"aX c #74C657",
"sX c #7AC453",
"dX c #7BCC53",
"fX c #7BC45B",
"gX c #7BCA5B",
"hX c #7ED255",
"jX c #7CC765",
"kX c #7DD164",
"lX c #81C834",
"zX c #86D936",
"xX c #84B851",
"cX c #85BB6D",
"vX c #81CB4B",
"bX c #83D248",
"nX c #93DB49",
"mX c #83C857",
"MX c #83CC5B",
"NX c #86D457",
"BX c #8BD45B",
"VX c #94D758",
"CX c #9CDB5D",
"ZX c #83CB63",
"AX c #86C866",
"SX c #8DCC6C",
"DX c #92C969",
"FX c #8AD566",
"GX c #93D768",
"HX c #89CB73",
"JX c #95CB7A",
"KX c #8CD476",
"LX c #96D875",
"PX c #97E169",
"IX c #93CF82",
"UX c #A3E382",
/* pixels */
"P r.G.p.<.8.z.P G.1.s $.z.aXx.r -.{.b.w *X1XA.T #XE { ! $XtXz.8.i .XS 0X|.x 9.|.f.%Xf.rXu.hXLXjX:XGXdXH.B.k.~.-Xq.p v.*XqXHXBXBX",
"Q >.N tXh 2.6.S u.pXN k.V N h.Y X.D.<Xn t.x.E R.$X..C.<.H.u.F ..{.:.0X:.A.1Xh.<.r ].-.I _ I.NXGXVX~.sXbXNXSXH.S.H.LX:XSXmXMXSXH.",
"f.i pXz A.y.<.M.-.c >.<.r j {..Xe W ].%X8._ z t.y.8.i G +Xi v f.u.].>.|.AXhX} K y oXR e !.2.~.SXJ.mXFXUX:XNXzXDXSX@Xd.LXeXQ.VXVX",
"Y rX<.e z R 0.G 1X,.* x.h a [ V 5.,.+X' k.$ d.U.f.d.t.h.h.:.$X_ 9.p ~ x.x.x.Z.gXN.sXZXiXH.&XBXmX-XrX=X&X4XfX_ J.Z.VX:XCXLXw.fX^.",
"l.9.}.v f.{ 7 f k <.8 f >.>.4 e < l.Z.x.g.y.&X` ;.@X#XgX,.B.X.C.OXsX^ G m W &X%Xi.r *X=XD.oX9.C.F.3X^.yX9.&.E.gXrXBX^.mXGX<X~.I ",
"2 6 KX,.i j y <.#X8.x q.t.-.G c E n u  XN q h.J.D 1.$.#XqXx.~.AX%.eX,.K jX9X}.pX9Xf.3Xx.=X<XjX~.4XvXNXnXDXAXT.c.iXq.$XFX!.eXfX+X",
"^ 4 S <.#X;.K #X< y u 0 8.4.7 q q =Xo.@Xx.h ..5.y.1.$.! +X<.y.=X#XQ }.sXqX) 1XjXU.6.z.{ ) fXX.U.MXu.U.G.MXAXsXFXpXE.y.FXY.B.B.+X",
"i.i ! 1.k Y z b c n.t p ] /.>.Y X._ >.s.8XW -.< w ) ] G.=X6.-.GXH.A.:XE./ g z 4.$X:XG.ZX^.x. X9 %.x <.8.^.dXM.=XUXhXH.FXY.*X` MX",
"} ^ >.9X6.J ,.{ S ^ I ~ Z n.0Xc k.%.| qX.X;.S aXMXc.t.3XFXC.Z.gXpX3XNXfX8XE.+X+X>.8.4.!.H.f.W.l.fXH.C.fXT D.-XyXLXW.2.=X>._ ..eX",
"<.p = 4.> r j m ,.V 5 ~ 9.C.C.0 k W hX&Xg.s.] P.MXz 0X| l.^.^ r.G.Z.y.+X5X! T.^ rX! 5.a (.rXW T.jXS.M..XrXHXeXyX!.q m.W.bX}.l.d.",
"s.>.&Xy.*.f.{ 2 v.*Xm F 9.x.V ~.z.rXoXR C.(.AXdXW.Y.W.NXj.G._ B.L v.E X.9.3XNX2.5XoX>.i.7X2XNXl.gXy.5.f.w.mXrXrXtXpXU.R =XgXx.+X",
"F -.{ ]  .v.v 9 r ..%.j a >.t v $ F .X.XC.:XsXeXq.K ' r 3XG.g.#Xm.z (.3XMX1XpXh.p.yXD.r.%X5XiXeXX.e `.k.dXsX$X>.].z.FXx.*X~.$XH.",
"* j W ) f G.=XH.W <X8.a ;.f.Y ] G > Q y.8.h.e ..l.^ } G.+X;.w.) A.oX].@Xx.8.k.SXFXl.Z.`.HXf.| x.jX*X].pXl.v.B.|.B 7X0X<X_.Z.+XrX",
"c.E 4 p 4 &X3 U $ 8.qX<.G -Xe v.c q S W z <X<Xm m h B.W.U.v.t.T G l.sXg d >.$.}.|.K._ E ..y 7Xq.).(.>.g.ZXI.~.jXG.jXtXjXbXD.e.R.",
"2 G t 9 FXB.<.| &X%X%X}.8.M.9 p i a V m O @ $.6.b.iX7 }.8 h.0 +.{.m 0XaX1.C ! j 4X2.#XdXH.V.W H.8.kXM.! ].d.N.h.-.A./ g f 9.ZX9.",
"+ z.t %X9Xy.p k.* f.4.#X;.;.+.i.f 2XX.5 %.U * 6 J d d 9.yX!.).{ ( | W.G.yXbXP.x.oXw.g.X.'.|.M } R.^ AXpXoX].C.jX5X{ b.M.tXLXrXh.",
"_ #.T.Z 8.x.{ Z.-Xw y 2 @ p A.< * l.X.9.7.Z l. .oX%.wX(.G.7 I.c.q / Z.I.S.GXNXpX*.X.8Xy.q.>.N.! q SXJXrX3X].+ ZXZXHXAXE I.$XZ.G.",
">.x.6 h $ oXs.rXpXv f.= W W Z o = h G.gXL B.D.z G.T x.4.0XF.9.J #XI.x.8XvXrXf.x.w F 3X>.sX3XSXAXZXMXSXm.1Xq.! =Xi.~ T.q.S ^ qXsX",
"z rXl.X.7 oX4.v.g , h.D.D.@ -.m S s.).3.0 0 x.pX$.e L Y -XAXuX_ Z.I.:XGXI.m.G.x.r.^ #X9.H.sXJ.BXqXJ.m.V.jXp KXa kXs.w.l.8.<.j.*.",
"4 ;.x.y.A k o , O N O.g.H.D.pX;.4X .$X-Xs.9.K f k h 6 c T.G.^.^.&X_ #XqXL.W _ uXW.$XY.I.yXo.X.C.rX$X9.rX+XJ.aXjXFX].T 1XFX4Xs.2.",
"2.R w = <.@ + o . h k e -._ ( d o 2X=Xv.D.f.<X3XW.C. .S.S g.r.=X8.^ tXSX!.JX_ A.} G S.t.T 7.FXSX'.v.Z.$X8.4X$X0X=Xf.L d.GX3XW.D.",
"I.8.% | ' a a , Z x 4 m m X.j @X5.y.'.fXi.] N w W (.B.l.~ o.ZXbXG.$Xm.y M.!.4.o.SX3X&.5XFX>.p.b.p.I.rX].fXE.b.x.NXjX<X) U.:Xs.sX",
"*Xm 8.D g.d r 0.t &.3 4 h.i a.%XU e <.k.h.X.OXq.Z.sX} 9.<.;X@X&XR.$XdXgXsX~.mXsX=X; 7Xj.5X/ @ { R y.-.h.D.R Y.eXE v.> R f.@Xc.!.",
"V +X8.+.X m X.q.F 6.E O t 6 $.' , ' (.X.m n S $XT.c.X.<.'.9.' C.@XGX>XI 9.GX$X#X_ $XeX$XE.N O $.0X%XN +X3X~.x.AXw { z.L.r.U.9X%.",
"# ' k.x.@ r -.s.{ k.#.%XE p.#.j.;.6.<X..f.%.+.:.a x.@X6 3X Xl.W.6 y.-XwXs.9X) ( v.t.G.SXi.uXG.=Xq.q.M.f.P.t ' aXqX>Xx.G./ .XG x.",
"N r 5 X.m | Q a @ j -.> 9 > +.; N r C ..t j.-./ C.G D.h.7X-.pXIX<X X8.4 #Xh.;.U #XH.l.4.X.s.r.&XN . G.| %Xk.;.E.V 0.K !.1XAXrXg.",
"8 3 O 0 s.k -.4 a h.p v > V p (.B k.m h.FX{ p r.H.r s.T D.0XqX+XKX;XG <.AX].jX6.j.V c.G < h { <.l.,.].].x.+Xa.j `.b 8 Q 0.2XZX].",
"9 k j.h.7  .$ h.pX}.T o 1.x.q.2 ;.c `.*Xg.p M o <.eXJ 8.> ,.Q _.}.$X+X&XIXg.jXiXFX1X0 W.>X1Xx.l.,.GX<X/./.8XW.~.tXiXE.s s 3 +X&X",
". 3 ' 1X Xd.* $ $ $ e 3 ) j.n +.y.<.f.b.S s.NXfX3X4.v.{ w.p.q.IX$.gX5XuX<.@XG.D W.>Xr 6.h.y $.f.8.`.c.g.|.= =.N a B.v.ZXZ.>.j. .",
"4 $ k * z.8 ] 2 z % d.] h 6.6X3Xm 4 / v u a.$.@ 8...E { 6.k.e.8XjXZX] c.ZXk.q.$X+.6 2.mX^.D.D.aXd J Y x >XV { D.pX7XkX .^ $.R.gX",
"9 O.H.<.3 % + { G.r X.>.d } - ' OX4.x ,.f...z o 6.9 v D.6.0Xq.G &..Xm.k.kXs.9XW.; F fXIX1XFXfXU f.M h.l.2.HXb.v H.:XC ;.E kXeX!.",
"8 6 n.;.n v v y | +X} 2.q N z *.y.g c e G.$.8.X.'.].l / i.iX# +.7X[.iX<.7X..(.y.6.rXb.*X%XV 2XdXX.3 4.$X<.l.SXjXqXtXAX4X+.|.j 6.",
"U.<.@.D.; f.4 } W ' -X5.4 +.V = = ' tXh.j ! %X..q G.pXg.2Xu.gX-.f.b <X`.j l.3X3 y t...+XaX@ d.) R.kXb.i s f.jXrX*.0 @ <.tXh.}.a ",
"@ d X.i.3X& i >.8 k 6.f t +.= 3Xg.k r.u.C.T.4XDX].K Q h.>XM oXW.>.z.1Xe.{ 7XoX'.*.h 9 g *Xg.8XiXx.dX#.@ ,.# ( 2.C.rX#X< y A.@X! ",
"f.O $ 4.i.4 x.9 `.{ 1 * d D.OX3.9XZ.aX^.x.B z.J u.,.<.x.>.V 8.8X6.oXs.6X3 2Xj.6X`.(.j.>.#.$ ,.b.S v k.U.^ $XJ D.y.j.rXJ.].9.l.; ",
"s.} $ S.^ / X.f.x.%.j.) t.T >.} d.=XZX1 *Xq.8.V.Z.s.>X$Xe 9.:X:Xl.<.].AX; h 3 4.ZX].- | AX=Xh...| v p.W.R.pX1X0XW 9X{.FXsXe G.^ ",
"A.7.: A : y T T ;.X & a 2.T.y._ @ A U q.h p.2.(.(.3X: :Xr oX,XjXtX9.O =XsX.Xz.*X7Xf.o.*.jX(.6 @ x.}.1XA G 9X%XrXX.a.m.2Xs.6.NXH.",
"[ o.*.0 { [ a i...> x 8.v.m MXM.w.D Z.q.} p.p x e P ~  X*.< c.dXLXR. XMXl.1 Q {.dX3Xq wXMXx.iXNX<X9XR.U.G.9 c dX@Xc.A.t.ZX^.I.ZX",
"C.D.@ 7 h u.i o <.* 0  .;XA.qX;X!.W.,.>.% u 2.+X+X8XMXc <X1XZ.>X{.pX|...MXg.e z.1.jXZ.'.$.5Xg.5.dXW.I W.FX&X!.MXJX_ Y.0XR.$XS.dX",
"@ @ X } 4 2 O S @ 8.} j.+XrX] f.% x.t.H.q.%.2 5 D ! wXbXA.0 0 ..u z a.l.#.<.&Xe m M ].KX{.v.AXl.oXh 7 Z l G.mX+Xn f.H.AXq.gXqXo.",
"O + &.d @ y z i > 6.oX5.D.B X %Xy A 1.$.{ 3 ].X.f.#.].oX| #Xo.B ] l.jXF.6.d.5X].9.S M.,.c N. X#X;XF y.mX6.uX!.X.eXcXSXl.yXH.A 3.",
". G ;.o t n ,.$.s.y S H t ) } j.D.k @ 9 a Z.qXS < *.r <. .]...'.z E.8.>.oX-Xd.&X#.* ' I h @ u.jXb.mXR.p.t.F.T S.0.t.@Xj.=XMXH.5.",
": @ f - $XE ! 0. .U J N.2 6.r y g P rXg.oX$ <.X.B cXV M.3XiX7.k.d 3 b e N wXAX6.U +XFX5.VX[.0 GX(.jX{ 1X#X8.C.oXp D.,XZ bX5XGX^ ",
"t f c b u D.:.G >.L.Y rXg.E Z.m.E 9X] h #Xf <.<X(.*.}.p.m h.#.$.wX%.c u.*.M.D.8X5X3 % C.SXD.@.6 G.0 0 T.fX7XMXrXgXd.q I.: 4.+X| ",
"k $ > c n x r M $.+X* @.g.r #.-Xd.S 4.R W D ;.F 9Xb x.1.%X&X;.O 2XpX/.1X0.(.x.yX3.Y.bXN Y.SXy.mX{ %.G.R L { 1.dX$XmXZ.@XZXoX&X&X",
"6 tX$.5 a w { +Xp.{ N m p W.c L ^ 9 R 8.Y '.{ q K >.4 Z.q.z.#.OXk.w oXSXC.qX;.8 HXJ.H qX~.x.P.S.8.n T 4 K.N / Y.) J E.J !.<.vXP.",
"J b.9X8Xd.] F '.{ x.4 0.@ 1.O.2.8.U = S c vXQ.*XGXD.sXs r W.D.%.l.(.bX'.>X2.m.S O.W.W.GXbXFXI.H.B v.X.L e.BXbX4.tX8.q w.s.G sX8.",
"y y.h.; $.(.>.0 t.x 8 0 | ^ eX3.bXN pX9.GXZ.vX&.] E & @ $ @.f.AX7X*.} 1 FXT.fX<.l.7X3X$X9.g.W Y.SXAX3.t.D A.9 E 6.N.V.&.S..XZXu.",
"9 2 + Q (.'.O [ f.@ 8 + 9.t.e F 0 8 :Xd.$.9.&X9.2.c.+X` r ` (.7X,.j @.8.AXq fX! V.D.B  X].2.sXuXJ.vXZ.OXjXF.U +X Xw.L bXK -XOXH.",
"5 r c %.m.k 6 E t , H L T.qX= 4 *.h % { oX,.j.GX:XtXE.y.F 6.0X*.m *X5Xf % *.@ 5.mXZ.rX[.:X[ oXd.D.W I.C.3X.XqXT.*.GXT.NXG.KX2Xh.",
"q Q 9 e g | G 8 @ @ 1 5 O.+X+ j #.h.G.1 ] z eXG.AXZX#XG.~.sXOX;Xn.C.r <X>X0 o.W C.2.j O.]...R .Xe w.cX3X5X{.k.5X:X:XyXW C E  .n.",
"-Xv.!.W 9 ..2.;.K W zXI.) h G.T.= : fX].U y.1.$Xl.s.}.6.#.~ <.u -.7.@X8.l.6X&.-.1 = a r q.e <.0XA wXDX#.C.Q ..+.'..X$XI.M.q T.L ",
"+.2 G.S O ' l./ !.c.BXd.< G { ].D.qX$X].q.g l./ d.<XMXQ 6 Q E :X$ Z.G NX7 T.'.h E / x.D.H.x.| $.8X}.i 9.Y T wXD.N.$ u M.D ) I DX",
"iXE W j `.U $ 0 3 8 W C d 2.J N.6.Z.9.F.s 8  .;.j Z.a.h.+X% oX:XOX-X~ s.&.Z h.@X; W X.PXMX0XY OX).U G.i h V (._.@XCX* T ).` -XL ",
"U.8.i Q w G u.6.; > > > *.qXg.1.W Q f Q.y.f.<...e.E.tX@X8.K.d.$Xg.y.f.rXM.d W h.j.f.~ @X@ G l.uX5Xt.].2X .G 6.<X*.>X4X&X#X~ wX9.",
"@XwX; 1 v.s.n | Y.8.A.t.X.y.e.2 * * ; | G.z.l d.8 q j 8X*XyX+.] <.h F fXGXyXMXFXC.X.oXJ.q S 3 L  X$X:XoX'.6.'.oX@ 4.! j.sX9X~.w.",
"O E O o + +.w F $ { 3 , ] h E.Y 7 q 1X$X! 8 1..XE 9 N @XM.-.$.F @Xy.R < o.R Z K x.S.F.7.D AXOX].' 1 5.H.d.$X,.<.S F M.NXBX...XSX",
"8 @ 1 o < { g.&X>Xl.7 Y 1 c >.&.[.qX4Xy.-.y.S Z 9 1.^ rX+Xh 7 r AX$X;.6.D %.E J sX% JX^ S ; f $.$Xg.m h.6.LX@X4 wX3X7.) 1.wXH.iX",
"j f #Xz q -.$ g.N >.l.8.^ x + Z ! 8.4 <.%.C.mXmX#X{ f S $XF x.#.].p.NX_ g.F.X.y.j h.3XF vXB.!.6.T.sXf.`.' f.%.F.ZXfXlXE L N.F.| ",
"NXx.z 2 +XG + . 1 tXM t.j O t D ; | G c 8.9.,X;.9 ] 1 e 4.y.-.9 Z 5Xj.m < U u f.+Xo.; oX@ F lX] 0 vXM.NX-XJ.V.~ k 3X9.A.0 G.sX5.",
"d $ , . = 2 z T f %  .> + U < < d 8 U r #Xm V 0 r ^.) D.G e m.V H.8X%X_ J.zXdXV H.Z A D.Z.^.cX%Xm 5.$X@XM.!.V.N.:Xh 5.O.h .Xz q ",
"F i 3 ^ W.z.V.y.y > H.+ @ %.s.<.j 4 ] V | z > k 5 5 zX:Xf v. X6.x.&X{ r.L $ S -.&.h } ) G.n u.B.X.5.M.<.z 5 8.G.JXOXxXDXV.X.e ^.",
"  s.9.H.O.+.G.u @ K D @ > %.b L g.W k G & q > z S &XbXs.<.KX:XwX .J.p o.wXL g M.D.6.7.OXHX4XBX#X,XM.w ` N.N.nX-XbXGXbX~.lX~.Y m.",
"5 K t 6 M.t H ) o.t.v j < e x.G A.E D % $.J 6 w @ g.#.1 q ..C._ O.D 6.M.x.wXT.u.A.V.n.x +.e +.5.>.GXH.Y ;X~ ~.V.gXGX9.W Z j.VX3."
};
