/* XPM */
static char *_15883312858440d9fda9d990043ea76ydSj18vf92JGvXh2[] = {
/* columns rows colors chars-per-pixel */
"64 64 148 2 ",
"   c #A53A01",
".  c #AC3E01",
"X  c #B13E03",
"o  c #BC3F03",
"O  c #C23F03",
"+  c #A54100",
"@  c #AC4503",
"#  c #A74805",
"$  c #AD4A02",
"%  c #AC460B",
"&  c #AF4A0D",
"*  c #B24402",
"=  c #BC4502",
"-  c #B34D03",
";  c #BC4C03",
":  c #B2460C",
">  c #B34D0B",
",  c #BA4D0A",
"<  c #AE5203",
"1  c #B55303",
"2  c #BC5404",
"3  c #B65804",
"4  c #BD5B03",
"5  c #B6530B",
"6  c #BC540B",
"7  c #BC5A0B",
"8  c #B34C12",
"9  c #B35211",
"0  c #BC5312",
"q  c #BD5B15",
"w  c #BC5A18",
"e  c #BF6104",
"r  c #BF610B",
"t  c #C34503",
"y  c #C94702",
"u  c #C44C02",
"i  c #CB4D02",
"p  c #D04F02",
"a  c #C45403",
"s  c #CC5302",
"d  c #C45B04",
"f  c #CC5C03",
"g  c #C3550A",
"h  c #CA550C",
"j  c #C35C0B",
"k  c #CB5C0B",
"l  c #D25402",
"z  c #D45B03",
"x  c #D95D03",
"c  c #D25E0A",
"v  c #C25411",
"b  c #C85614",
"n  c #C35C13",
"m  c #CC5B13",
"M  c #C45C1B",
"N  c #D15E12",
"B  c #C46304",
"V  c #CD6203",
"C  c #C56A03",
"Z  c #CB6B05",
"A  c #C4630B",
"S  c #CC630B",
"D  c #C6690F",
"F  c #CB6B0D",
"G  c #D46303",
"H  c #DA6403",
"J  c #D56A04",
"K  c #DB6B03",
"L  c #D3640B",
"P  c #D8650B",
"I  c #D4690A",
"U  c #DA6D0B",
"Y  c #CE710C",
"T  c #D47104",
"R  c #DC7304",
"E  c #D77A07",
"W  c #DD7A04",
"Q  c #D57208",
"!  c #DD730B",
"~  c #DE7708",
"^  c #DB700E",
"/  c #DC710C",
"(  c #DE740C",
")  c #DF770D",
"_  c #D4790A",
"`  c #DD790B",
"'  c #C56413",
"]  c #CA6314",
"[  c #C46A11",
"{  c #C36816",
"}  c #C76B17",
"|  c #C86A13",
" . c #CC6B13",
".. c #CA6D10",
"X. c #CA6E13",
"o. c #C6631A",
"O. c #C96419",
"+. c #C66C1D",
"@. c #CB6C1A",
"#. c #D36111",
"$. c #D26412",
"%. c #D46610",
"&. c #D46214",
"*. c #D76A10",
"=. c #D46A15",
"-. c #D96B10",
";. c #DB6F10",
":. c #DC6F11",
">. c #D4661C",
",. c #D36A1A",
"<. c #CD7114",
"1. c #D17214",
"2. c #DD7110",
"3. c #DF7511",
"4. c #DF7B10",
"5. c #D2721B",
"6. c #DA7018",
"7. c #E16703",
"8. c #E06E03",
"9. c #E06C0A",
"0. c #E17404",
"q. c #E37B04",
"w. c #E87E04",
"e. c #E1740B",
"r. c #E0740C",
"t. c #E27A08",
"y. c #E47F09",
"u. c #E1790C",
"i. c #E1790D",
"p. c #E27C0D",
"a. c #E47F0D",
"s. c #E17411",
"d. c #E27910",
"f. c #E57B12",
"g. c #E27C11",
"h. c #E57D10",
"j. c #E87F11",
"k. c #C16321",
"l. c #CC6E21",
"z. c #CA7325",
"x. c #C9712B",
"c. c #D27A20",
"v. c #E08007",
"b. c #E68107",
"n. c #E4830A",
"m. c #E3820C",
"M. c #E6850D",
"N. c #E68E0F",
/* pixels */
"k S V S f L J J J J J I J J I J U J I U I L L N N N m b m m N N #.L *.;.U ) ^ / ;.U -.-.U 2./ / p.~ ) / / ) / ) d.p./ :.3.2./ ;.",
"k k f f S L I S L Q J J J J U J U J I I I L L k k #.L k N &.%.%.L I U ) / / ) 3./ 2./ / / U ;.2.p.p.;.;./ U 3.3.3.p.U / ) p.) / ",
"9 5 1 $ # $ < $ < < < < < 1 5 5 5 3 3 5 5 5 > % & & 8 & : 8 8 8 6 6 7 7 j j A ' ' j j j j j d e B B A j A A A D [ [ } { | ....A ",
"f f V S V S J I I V J J J J I L I J I L L G k h h b h k k k c c L P c I J U U / P P P P P P U U U U / U / r.u.m.y.M.p.r.f.j.a.h.",
"f V V V f V V G J G J G J J G G J J U J J J J G L G L P c c c P J K J R R R T R R K K K K R U U / ~ R U U / y.n.v.v.q./ / ~ r.h.",
"4 4 B d 2 2 B d V d d d d d d d d B V f f f I f V V f f a a g k G I V J J U J U U U L G J J J J K / R R / e.R y.W y.R / K U s./ ",
"< $ $ 1 3 3 3 4 A r A B A B A B F F d B d B B d B B j g g n O.@. .|  .5.,. .| =...] O.' ' ' ' | ,. .5.5.| ..1.1.<.5.} O.O.O.] O.",
"B V V d f J J Q T T I B S Z J J T T E J J J J L f L c k k L I R R E ~ R R R ` y.R / U U R R ~ ) p.y.~ ` ~ U / ~ 4.) ` :.2./ L >.",
"d V S V V S V J J J J S V V G J J J U G J J G z f c L c L I U U R ! ) ! ~ R E ~ ) R ~ ~ u.` ) m.m.m.m.` ! L U ! ~ ) 3.;.3.g.;.;.",
"1 3 4 4 4 4 j B B B B A B d A F Y ..F  . .$.=.] ] l.o.o.o.M n M n n 7 7 7 3 3 3 5 6 6 6 1 3 3 3 4 3 4 4 4 3 - 1 3 3 3 5 6 6 5 5 ",
"G G G G G J J R W W R R T K J J G G f P P P z z z z z z J H K K q.q.q.q.v.y.0./ L / 0.R W t.b.b.q.y.q.u.q.R K K H U r.r.r./ U s.",
"G V G G J G J R W W R T K J J K K J L S P z z z z z f z H P H K t.q.q.t.N.n.m.p.) n.y.w.R q.n.y.M.m.m.n.a.e.e.e.r.2.r.u.u./ / e.",
"3 3 1 1 2 2 4 4 d B 4 2 d d d d a a d a a ; ; ; v f f f f a a j S L S Z _ _ E E T J I I B I J T E ` J J I V f f V L I S I I L V ",
"I I J G J J J J J U U *.%.>.=.=.=.=.&.#.k k k k h f g u g u g d d d a d B d d d d d d f B f a f d S Z Z B f V V f d d f f g a f ",
"G f V J J T R T J J J G G f z z J J G G G G z z H H z P H R R R q.R K R R R 0.q.K K K R 0.0.0.0.0.t.0.0.K K K K 8.H H H H H H H ",
"G f f G J J J G J G f f f s f z z G z z z z s z z z z s J K K K K K H H K K K K H H H 0.K K K K K 8.K H H H H P H x x x x z H H ",
"1 - - - 2 d B B B d 4 j j j A A n ' j ] ] ] ] M n M n M n o.o.o.n v 5 2 2 1 - - - - - - 1 - 2 1 1 - - 1 - - - @ @ @ @ - - - - 1 ",
"g a a a f V f f f f s f f f f s s s s s i u i i i y s l z z z z J G G J K K K H z z z z z G G H G H K K H z z z z z z H K K K H ",
"d a a a a f a f s s f f f f f s s s f s s s s s s J G G G z l z G z P H G J K U K J P G G H H K K H H K K H H H G H H H H G H H ",
"A ' n n M q q 6 5 - @ - @ $ @ @ @ @ $ @ $ $ $ @ + @ $ - @ @     . . @ * - 1 1 1 1 - $ - - - - @ @ * * - - - - - - 2 1 2 - * @ @ ",
"V f f f f f f G z f z J f s s s f s z s l l f s s h z H x P z x x H H K e.0.0.9.P -.9.K K H K H H x H H H 8.0.0.K K 8.K H K 9.8.",
"I V f G f V G J J J J G J z z f s s z z z s s s i l z l l z z G H G L K 0.R K K H K K K H H x z z z H H K 8.0.0.0.R 0.q.q.w.w.w.",
"V V V G G G J G G J G J J z f z z z z z G l i i i l l z J K K K K K K R 0.R K K H H H H H H H z z x H H H H H K K K 8.0.w.w.q.q.",
"$ < < 1 $ < 1 1 1 3 3 1 - $ @ @ @ - - 3 3 3 - - - - 1 3 3 3 2 2 2 2 d d 2 d j a a g a d g ; a a a a a d f k f k k k L L L I L S ",
"V V J J G G J J T J J J G f z z z G J J J J f s s z z G K G G G K K J K K J K K K K K K H G x z z z J J G z H H G z H K K K 6.J ",
"J J J J J T T R R T R T K J J J K K K K K J z z G J J G G z z J K K K R K z z G H G H H G z s s l z H G H G G G H H K K K K K H ",
"1 1 2 2 4 4 4 4 4 B B C 4 B B d d d D +.+.A | | A A A ' D A j @.c.5.z.z.x.k.w q 6 q 2 3 2 > , , ; , 6 j j 6 5 2 2 2 2 2 2 2 2 - ",
"f f G f f J G f G J J J K K J H z z G z J K U J R q.q.R K K H K R 0.0.8.H z H H K H H x z l x x H x H H x x H H K H 8.0.K 0.8.K ",
"f V f f f f G V J R R T K K J J G z J G z J z G K R R K J K H K 0.R K K K H H H H H H z l l x H H H H H x x H H 7.8.8.8.8.7.H H ",
"f s s h u s f f V f V G G f z f f z G f z z z z P G G z G J J K R R K G l l z l l z z l l i l x H H H H z x H H H K K 7.H x x x ",
"> % % @ % > 5 1 1 - - @ $ @ @ $ $ - - 1 1 1 - 1 1 3 4 4 2 4 4 d e B B 4 3 3 6 5 > ; - - : : - 6 j , , , , g g g 6 g 2 g g g g g ",
"f G z f f J J J J K J K K K K H K J K H K K K K K U 0.0.K K 0.0.q.q.0.K H K K K H H x l x l l H H H H H H x H 7.7.7.H H x z x x ",
"f G s s f z J G K K K J K K K K J H G H H z J J K K K K H H K K K K K H H H H H G x z z z z l K K K H H x H H H H H H x x x x z ",
"$ $ @ + $ $ - - 1 1 1 1 1 1 1 1 - - - - - - 2 2 2 3 6 2 2 2 4 d d d d 2 2 2 d d d d d d d a a d B S S B V I L L V S V f k c k k ",
"a f f s a a f f f G J G G G f f G f G J J G G z z z l s i l G K K K H G s l z G z z H x z l z z G K H H H x H H G z z z l i i i ",
"f f f a a a f f f G J J G G G f f f G z f f z z s s i s i s x G J z z z s s l l z z z l l l s z x H H H x z z H H H l l i y y t ",
"S f a a a a a f f f V f J V a a u s f f s s u u s i t y i z z P G z s l s i s l x z z z z l l l s z l l z z H H x z p i y t t O ",
"4 d B d d d d B B C Z Z C Z C d d d B B d d f B V V d f j d Z Z Z Y S d k S I I I f k k k S k d V k k g m S ] S g v v 6 ; ; X X ",
"d f f f a f f V V V G G J G G z z G z G z z z z K K H G G G H H K K H G G z H K K K H H H H H H K H H H H K K 8.H x x x l l y i ",
"d a a a a f f V G I f f f G z a f f f f z f s z G P z z z z z z z z z z H x z z G H H H x x z x z l z z x z H H z l l l l l p p ",
"r r 7 7 3 j A A A 7 B A A 4 A ' D A A A A A j g 6 j j j j |  .| O.' ] O.] ] ] ] ] O.] O.] O.j n g M 6 6 2 g ; ; * * X . * * X . ",
"J G f s f f G J G V G G G z G G K J J J z f l l l z z l s s s z z l s l l l x z l l l l l l l z l l l l l z x x l i p l x l l l ",
"J f f f f G J J G G G G V G G J J f z P x z s s z l s l z z z x z l s s i s l z z l i i l s l z l i l l z z z x l i i l l l p l ",
"V d d a d d V V Z f f f f f f f f f a s u a = u u a s s s f s a s s i u s i i u s i t t t y y y t = t i s s s s i t i s l l i i ",
"e 4 4 4 4 4 B B B C C C B C B C B d d d Z d d a a d a a d d d a a a g a a d d d d d d d d d d a 2 2 a d d V V B f g d k d k g a ",
"f V f G J T T J J G G J G G J G G G K K K J G x z J z z z G z z z z z z H H H H z z z l s l z l p i l l H K H x x l z x x z l p ",
"f f f f f G J G G s f z J J G f f G J J H G z l l z z z z G H H H H z x H H H H z z l l l x x z l p i p x H x z l l l x l l i p ",
"2 2 2 d d C C B B d d B 4 B B C B e C C B C B 4 e 4 4 d d C C C Z B A ....<.<.F | | | ' A | | } O.] A n S  .' j , : , , 2 ; - - ",
"f f f f G G T J G J G G f G J J K J K K G G G f s s i l z G J z z H H H H H z z z l l l z x x z l l l l H K K K H z l x z z x H ",
"f f f f f f f V f s f f f z f f G z J J z z f G z s s z l z H z z G J G G z l l l l l s l z x l i i i l z x x x z z l l x z x H ",
"a ; ; ; ; ; u ; = = ; a d f a u u ; d f a a a g u ; = u u u s s u s f s s s s s s u u s i i s i t t t i i s l s l s i i z z z z ",
"1 1 2 2 4 4 d d 2 2 d d d d 2 g 2 j S  .S ] k k S ] m k k k h g g k f S k j g a a ; = ; ; ; ; ; ; ; = ; ; g j j d 2 a a d d j f ",
"f f f f V V J V f a a V G G f a u s f f f s s u s s s i y y i i s z z z z z i i z z f z x z s i i i i i i i s l l l l l x z z l ",
"f f d f f f f g a a a V J V f a u u a s s s u = u = a f h i y t t y l s i s y t i y s z l l i i t t y i t i i s i i i l l l l s ",
"4 B e 4 4 4 4 4 4 4 4 4 4 2 4 4 B d 2 2 2 2 2 2 2 2 d d B 2 a a 2 a 2 2 ; a 4 r [ B S C B B ' O.' ' +.o.o.n 0 6 6 6 , * * - ; ; ",
"V f G G G G G G G z G G f s s i s z f z G z s i s s s G z l i i s l z z l z l s l l z z z l i s p i i l l l l z l l z l l z x x ",
"f f f f f V V G f z G V f s s s f f f f z f s s s l l z z z s i l z z z z z z l l s z z z z l l i i p l p l i i l l l i l x x x ",
"g a a a d d d a a d d a a u g a g a a a a a u u u u u u h f a u u h s s f f s i s i s s s s i i t o = i i i i t i s i i p l l p ",
"C B 4 d d 4 d B B d d 2 2 - - 2 a 2 2 2 a a 2 u a g a d d a ; u a a d f a a a g a u u a a g a g u a u a a a g d d g d d k k f f ",
"J f a f a f V I G G G G z f G z z z f z f z G f s l z P P H z s z H H H H G z l l s s z z z z z l l l l l l l p l l l l l l l x ",
"d a a f a f f f V G J G f f f f f z z z z f z z z z z G z z s s l z z z G z z l l l l z G z z x H z l z l l l i y i i i l l z l ",
"1 6 6 j 2 d d 2 4 2 4 4 4 4 2 2 - 2 2 d 2 2 a d 2 d d 2 2 a a 2 2 a a a d a g d d d d f S S B S I S  .S k k g g g n g n j n g ; ",
"f a a a f f V I G f f f f G G f z f f f G z G J G J z s s s s z z z x z z l l l z z z l z z z z z l l l l l z l l z x l x H K H ",
"f V f a a f V V J V f f f f I f z f f G G G J J J J z s s z G G z z z z z l l l z x z z z H K H z l l l l z l x x x z x z H x z "
};
