/* XPM */
static char *c6187c481f6446d5b36c71823454bbc2tAZXpbnDgCrqCv4c[] = {
/* columns rows colors chars-per-pixel */
"64 64 255 2 ",
"   c #6B0268",
".  c #780277",
"X  c #87027C",
"o  c #96057D",
"O  c #94157C",
"+  c #AB217D",
"@  c #7D0684",
"#  c #791191",
"$  c #7F37B4",
"%  c #7A52D5",
"&  c #7270D6",
"*  c #7850E5",
"=  c #7969E8",
"-  c #7375EF",
";  c #7977F6",
":  c #880588",
">  c #970385",
",  c #9B018C",
"<  c #8A128E",
"1  c #8B0797",
"2  c #9B0293",
"3  c #980499",
"4  c #8A1897",
"5  c #97169A",
"6  c #A4058C",
"7  c #A20294",
"8  c #A5029D",
"9  c #AA0498",
"0  c #B40599",
"q  c #AE1994",
"w  c #A81798",
"e  c #962A9B",
"r  c #A8269A",
"t  c #B32F93",
"y  c #9906A7",
"u  c #9011AB",
"i  c #9717AA",
"p  c #8E19B7",
"a  c #9817B7",
"s  c #AC02A2",
"d  c #A706A8",
"f  c #B302A4",
"g  c #B604A9",
"h  c #A816AA",
"j  c #B416A8",
"k  c #A908B4",
"l  c #B507B5",
"z  c #A717B9",
"x  c #B518B7",
"c  c #8B26A9",
"v  c #9628A8",
"b  c #8935A9",
"n  c #9936AA",
"m  c #8A2ABA",
"M  c #9927B9",
"N  c #8938B6",
"B  c #9837B7",
"V  c #A727A8",
"C  c #B527A9",
"Z  c #A839AA",
"A  c #B538A9",
"S  c #A627B9",
"D  c #B728B7",
"F  c #A837BA",
"G  c #B837B8",
"H  c #C407B7",
"J  c #C618B1",
"K  c #C733AE",
"L  c #C428B6",
"P  c #C438B6",
"I  c #B7468B",
"U  c #B74A97",
"Y  c #BB5597",
"T  c #BD6D98",
"R  c #8C4BB6",
"E  c #9845B9",
"W  c #9956BB",
"Q  c #BA47A8",
"!  c #B44DA9",
"~  c #A748B9",
"^  c #B846BA",
"/  c #A856BA",
"(  c #B857BC",
")  c #9762BA",
"_  c #BC69AE",
"`  c #B979B8",
"'  c #C5529B",
"]  c #C76E9E",
"[  c #C746AC",
"{  c #C45BAA",
"}  c #C446B9",
"|  c #C459B7",
" . c #C668A6",
".. c #C777A9",
"X. c #D17AA6",
"o. c #C767B8",
"O. c #C675BA",
"+. c #8D1EC2",
"@. c #9A1BC2",
"#. c #A919C3",
"$. c #B81BC7",
"%. c #8927C4",
"&. c #9829C5",
"*. c #8C36C9",
"=. c #9837C8",
"-. c #893BD5",
";. c #983BD5",
":. c #A828C6",
">. c #B628C8",
",. c #A738C8",
"<. c #B638C8",
"1. c #B328D1",
"2. c #A63AD7",
"3. c #B839D4",
"4. c #A73DE0",
"5. c #C618C4",
"6. c #C52ECB",
"7. c #C537CA",
"8. c #8B48C8",
"9. c #9948C6",
"0. c #8757C8",
"q. c #9857CA",
"w. c #8949D8",
"e. c #9848D8",
"r. c #8556D8",
"t. c #9958D8",
"y. c #A847C8",
"u. c #B747C8",
"i. c #A858C8",
"p. c #B857CA",
"a. c #A647D6",
"s. c #B747D8",
"d. c #A756D8",
"f. c #B657D9",
"g. c #8667DB",
"h. c #956CD1",
"j. c #9964D8",
"k. c #8976DC",
"l. c #A765CC",
"z. c #B868C8",
"x. c #B976C7",
"c. c #A767D8",
"v. c #B667D9",
"b. c #A874D9",
"n. c #B779DA",
"m. c #934DE6",
"M. c #885AE3",
"N. c #9757E6",
"B. c #A84CE3",
"V. c #A65BE5",
"C. c #AF56E9",
"Z. c #B45AE3",
"A. c #8769E7",
"S. c #9869E7",
"D. c #8877E8",
"F. c #9978E9",
"G. c #8769F4",
"H. c #9B6AF3",
"J. c #8678F5",
"K. c #9876F4",
"L. c #A868E7",
"P. c #B566E5",
"I. c #A777E8",
"U. c #B478E7",
"Y. c #AA6EF2",
"T. c #A77BF2",
"R. c #C34AC2",
"E. c #C45BC9",
"W. c #C753D5",
"Q. c #C568C6",
"!. c #C878C9",
"~. c #C967D9",
"^. c #C67AD8",
"/. c #D471D0",
"(. c #C55BE0",
"). c #C66AE2",
"_. c #C678E4",
"`. c #3D8DF9",
"'. c #5492F7",
"]. c #7287E9",
"[. c #6788F8",
"{. c #7988F8",
"}. c #6C99FA",
"|. c #7894FA",
" X c #7AA5FC",
".X c #BF859F",
"XX c #BC8FB7",
"oX c #BAA6BA",
"OX c #CC939B",
"+X c #CBA89B",
"@X c #C988AB",
"#X c #D58DAD",
"$X c #C798AA",
"%X c #C687B6",
"&X c #C996B7",
"*X c #CBABB0",
"=X c #C3CABE",
"-X c #B887CB",
";X c #B195CF",
":X c #AB88DB",
">X c #B886D6",
",X c #B897D7",
"<X c #BBA5C7",
"1X c #B8A6D9",
"2X c #B2B1D1",
"3X c #B8B3D8",
"4X c #8988EA",
"5X c #9988EC",
"6X c #9494EC",
"7X c #8787F8",
"8X c #8C84F9",
"9X c #9788F6",
"0X c #8896FA",
"qX c #9995F6",
"wX c #949CFA",
"eX c #9B9CFA",
"rX c #A888EA",
"tX c #B58BE6",
"yX c #A998EA",
"uX c #B799E8",
"iX c #A58AF4",
"pX c #A599F5",
"aX c #B492F3",
"sX c #8AA5FB",
"dX c #97A7FA",
"fX c #9BA3FA",
"gX c #9CACFB",
"hX c #8FB2F3",
"jX c #99B4FB",
"kX c #A9A7EA",
"lX c #B7A8E8",
"zX c #ACB5EC",
"xX c #B8B6E7",
"cX c #A6A7F6",
"vX c #A4ACFA",
"bX c #B7A7F3",
"nX c #A8B6F8",
"mX c #A3BCFB",
"MX c #B7B7F4",
"NX c #CA88C8",
"BX c #C895C9",
"VX c #C587D9",
"CX c #C696D8",
"ZX c #C7AFD0",
"AX c #C6A6D8",
"SX c #C68BE4",
"DX c #C59AE7",
"FX c #C4A8E6",
"GX c #C2B8E8",
"HX c #B4C6C6",
"JX c #93C2FB",
"KX c #B0CBED",
"LX c #A7C5FA",
"PX c #B5C6F8",
"IX c #C2C6EA",
/* pixels */
"> 3 i 4 # R . #     9 M M h y a y 1 u 3 q.].& & g.X > X : &.=.3 u = - 8.c u i @ @ :.&.X , f k w.-.%.* %.%.@.:.a y d d , 2 a -.* ",
"> , c c b 8.< #   > h B B z d i B 1 4 5 = & 4X= r.B , @ 1 &.&.3 c r.% r.m 1 M @ . @.,.: , f k =.*.+.w.p %.&.:.z h y 2 2 , p * * ",
"> 8 i 8.$ R < @ & & 9.B M S i 4 q.u c i & 0.].% b v d 1 p =.,.d v % % w.p i : p 1 a :.2 8 g k ;.@.*.M.%.w.&.z :.i 8 : > 2 r.* * ",
"o 2 c g.N b . $ & & q.v S h y =.q.3 @ 1 g.r.].0.< 4 h : &.=.&.2 B r.w.e.p *.1 u 1 k =.: 2 s S ;.@.w.A.N *.=.k @.s 7 X : y &.w.-.",
"o X B R c R : R & % E 9.B S i y =.# . < 9.g.].R . 1 y 1 p =.,.d =.M.w.w.p %.M y 1 z ;.2 s s z 2.:.e.M.m m w.e.#.8 , 2 2 y ;.w.w.",
"o > v N N v X & '.4XE ,.9.y.y.i M # : @ i g.|.0.. 3 3 a p &.,.3 B A.M.= *.%.d.3 3 z ;.3 8 f l :.:.&.m.*.u &.m.:.3 X 8 k p M.;.-.",
"6 3 4 n b b O & ].0.N B t.y.F M 9.< > v B r.= 8.@ d F m m &.:.d q.; r.= w.-.H.B 3 k ;.y 8 0 z S z a w.e.+.i :.z d , d :.+.m.&.&.",
"6 V n W c R R & & N q.j.q.y.v i t.5 X e v m = q.< 5 y.M i M ,.y.M.w.*.; =.S.j.=.y d a.a 7 f d z #.@.M.e.p M l S 2 9 z z *.w.-.-.",
"r V ~ W 4 W ) & & N 9.j.y.y.v y =.i X X c =.= t.4 < F M 3 M F 9.e.*.*.g.R =.d.M &.s ,.d 8 f k #.#.=.; m.u =.x a.2 g d z u ;.w.*.",
"> r ~ b < b W ].].0.B i.S y.M 3 9.4 X . 8.w.= e.N e Z i : y d M a.p m w.i i S a a 2 M 3 s g x $.:.e.{.e.u u l ,.8 j d s 2 ;.w.%.",
"6 Z / E b B n - - 0.9.F y.,.B v j.< : . *.r.= =.8.V 2 y X 3 S M d.M m -.i i =.z y 2 =.h s g #.2.;.e.{.e.y a l k 2 d 3 d d -.e.R ",
"r V ~ q.W R 5 ].].= h.V F i.=.i j.< . # 8.8.g.B m B > 2 : B ,.i S &.p t.M M ;.z 8 s a.S g l #.e.:.a.J.a.y d $.k 8 2 > l z e.;.N ",
"Q / l.E q.) v }.{.D.h.D h i.B v y.v : N 8.r.J.,.v c > : > B y.z z z a A.t.S i i 3 s d.z l g l ,.#.a.S.a.y d $.,.8 2 > k :.e.&.u ",
"z.i.l.n W l.W k.k.4Xc.F F y.B 9.q.n 1 c A.w.D.=.M c > X : v d.S M a a M.t.i =.S y 7 a.k x g l 2.a.a.S.2.y y ,.a.s 8 , #.e.e.#.a ",
"/ ~ / E v n W 0.4X6Xi.F p.u.y.F i.B 4 c e.8.J.M v 5 o : 2 B a.:.S z *.A.=.y ,.i 3 2 :.k l g l d.3.B.N.a.y d ,.,.l 0 , <.t.:.k a ",
"A ^ / E 4 E h.k.k.c.c.b.~ u.y.F i.n . e =.4 A.z X v > : 7 ,.<.z ,.&.-.e.e.a a.5 8 h :.q.<.g l 3.3.2.S.2.k k >.<.g s 9 >.N.;.:.i ",
"C ( ~ e W / k.4X0.^ ~ b.F G h F i.c . b 9.m D.S : i n 1 3 S <.k ;.&.&.S.A.&.a.M s C d.'.[.y.l $.3.1.d.a.$.l >.u.s g k a.m.M.;.y ",
"A l.~ 6 W / 4X4X4XC F i.u.G 2 v l.v < N S =.D.d.c 9.E 1 2 S G d =.z e.J.J.e.=.9.f d V.= `.- H >.3.1.d.a.x s >.s.l f y N.@.m.S z ",
"G i.r > n 9.k.k.6XF F F G ^ 8 e i.E B N 9.q.8.t.N 5 h 3 > S D d d.z =.t.M.=.M e.9 s a.;.- A.6.$.3.s.V.1.:.h 5.6.g 8 i :.a &.2.k ",
"A A w X v 9.D.4XF.y.h G D G , > V v 9.9.F g.k.S.b : > , , F <.s S &.&.t.t.=.=.9.6 h ,.2.A.; >.7.6.3.S.s.3.l H >.f 9 d l h a 2.a ",
"q A r X B j.7X|.4Xi.h G D ^ , > Z n E 9.e.g.6XF.R , 6 , > F u.l z M M S.L.=.M =.s <.a.a.[.; 7.7.>.1.N.f.>.l l f.f 9 z l s 9 a.:.",
"6 A w X i.h.D.7X4XS.s j D ^ 7 7 i.E j.E S A.D.d.B 7 w 0.5 V <.>.:.e.:.j.F.;.S &.k y.a.<.- - 6.7.s.s.a.s.>.x >.P.l 6 ,.].'.q.1.h ",
"6 A > r E F.9X{.F.c.C G G G h 7 / k.j.=.x r.j.i.i 9 k.[.D.d <.z t.d.z y.j.,.:.F g K.N.a.= ; V.7.s.f.V.y.>.s >.L.<.V A.`.'.}.D.~ ",
"q Q > w i.5X8X7X4Xp.p.( j P 9 8 ^ l.j.h :.q.g.c.v F '.`.[.S <.,.S.a.:.d.j.D l y.,.t.a.N.; ; V.s.s.f.L.s.$.g s.Z.s.z t.- w.= t.J.",
"q ( 6 5 l.4X7X0XF.i.f.F C R.6 h p.i.b.B e.N.9XT.B j.[.'.'.,.s.a.y.a.2.a.c.x k y.h a.2.G.'.[.H.L.s.L.L.s.x x 3.s.6.s e.e.G.G.3.e.",
"t Q w w l.9XsX7X5Xy.p.y.C ^ 6 w l.Z d.S.t.S.9XI.F ~ - [.}.d.d.a.,.d.z d.L.,.x F f >.L.7X'.[.9XT.L.iXL.f.D D x s.<.x d.,.; G.4.e.",
"A [ > w l.F.sX4X0Xp.P C j } w 7 l.r i S.S.t.9X5Xx 9.[.|.; S.f.d.z >.S S.9Xe.:.h f 1.K.V.{.; K.H.L.Y.Y.f.x z k s.1.:.d.:.= G.>.2.",
"Q Q > > / 6XsX5X9XR.P ^ t } A 9 n.V 7 j.j.e.F.v.D t.A.[.D.8Xf.d.:.z d.S.qXa.>.f g l d.d.{.[.V.3.s.3.V.V.#.z :.Z.3.a.t.N.J.m.4.a.",
"! | o o ~ l.v.c.F.p.D c.:Xp.C q p.^ V S.F S.j.<.c.S.e.J.7XH.U.V.2.#.S.t.I.e.<.D g x s.H.{.}.s.s.7.7.f.H.:.z :.P.$.m.l m.; w.1.a.",
"t | o 6 Z ^ u.4X5XF.^ '.'.4Xq C z.( S F D d.j.p.S.e.e.M.G.S.L.V.2.d.,.a.c.t.y.x s J v.V.7X{.B.3.Z.3.L.iX>.z s s.K.2.:.e.{.2.3.m.",
"U [ o r i.^ u.0XqXv.F.{.- c.6 C x.~ w x L F T.v.a.:.e.D.9X6Xb.a.>.d.z y.j.q.c.8 j l v.f.J.|.B.3.P.1.H.F.$.d d s.S.2.m.B.[.G.V.M.",
"U { o Z / ^ u.6XI.p.S.; = d.i.q z.w 6 S u.~ 5XP.<.,.S.A.{.i.U.B.>.$.>.,.q.h S 9 l g P.f.J.{.a.3.s.3.V.L.$.6 m.9XS.e.4.J.}.G.G.N.",
"U o.q r x.p.u.5XF.P 4X[.D.S.~ q z.w 6 i.u.G rXv.c.N.S.t.A.y.f.3.2.>.D y.j.d j 0 g x f.L.7X|.L.s.Z.s.3.I.$.7 k K.J.N.2.{.}.|.7XN.",
"U o.t A :X( E.rX5Xv.qX}.{.v.Z q z.r 6 y.D p.I.p.rXJ.d.e.8Xy.rX6.<.x j F j.h G f 0 j p.F.|.}.H.s.P.T.d.V.H w 0 L.8X9XM.J.|.}.8XG.",
"Q { t Q yXp.R.b.5XF.|.sX[.L.E q z.q 9 w G i.5X} p.8XZ.t.J.y.rXJ x j x ,.h.Z f.j 0 j f.K.0X}.8Xs.Z.T.d.C.H s 9 f.8XsX0XN.G.|.S.Z.",
"U { t A yXp.} b.rXI.4X|.|.qXr t z.q w C G a.5XP p.9XH.y.; a.v.L x g j :.k.v l.0 0 D v.H.8X|.K.L.s.s.u.V.D f 9 L.N.8X7X8X{.|.B.W.",
"Y { Q Q yXE.} yX5Xd.S.7X|.F.q O _ ! V V G e.I.P } F.F.d.G.d.n.7.D g h <.F.5 ~ j 0 2.K.J.7X8XH.C.6.3.u.I.H g h c.s.8XsX0X|.0X>.7.",
"Y Y U ( :XQ.| :XrXc.H.7X7Xb.t o x.! A 9 L d.b.K G c.9XL.D.p.tXW.G <.x d.iXh 9 j 0 V.9X0X7XK.9XL.7.Z.s.I.H 0 D p.3.K.K.K.0XJ.>.5.",
"U { _ ( yX-X!.:XpX9X|.K.8Xd.t q !.! C j K d.5X^ <.V.qX0XwXc.tXu.G c.>.F.I.F 9 0 j >.K. X0X8X8XK.(.Z.3.L.H 9 g W.s.L.V.B.H.J.3.6.",
"I  ._ ( kX1X,X:XyXsX|.0X0XF.f.t O._ G 0 L D 5XR.D d.0X9X8XL.n.P R.u.L.S.I.y.9 j f >.Y.0X0XK.8XK.T.Z.<.d.J 9 0 p.P.Z.K.L.H.S.>.7.",
"+  .U | kX,X>Xn.n.kXsX0X0XwX6Xt O.O.^ A P C 5X^ p.K.qX9XK.L.~.P P <.c.d.rX,.j 0 j <.I.0X8XqXK.Z.iXf.D I.J 0 0 R.P.s.I.L.L.N.6.7.",
"I ..Y x.kXQ.| :Xn.tXwX0X0Xv.K I CXO.| G } F yX^ P.K.n.F.5XI.n.K L <.D d.iXF C 9 <.<.iXsX8XqXP.P.iXf.J I.J 0 0 } H.s.L.L.qXK.3.7.",
"T ..T ;XnX{ Q.yXyXn.9X9XqXQ.t U ,XO.{ j K <.6Xp.Y.Y.E.K.9X9XaXR.P G C L.5Xy.G j <.d.fXsX8XK.P.L.iXZ.L Y.J 0 g <.Y.f.B.V.qX9X6.7.",
"T @XT ;XLX .!.tXfXU.rXqXqXo.t U NX` Q t [ G wXn.H.5XL.H.9X9XjXU.L ^ i.L.I.p.G ^ V.Y.qXsX0XwXT.T.rXs.J L.J z.PXPXL.3.H.s.T.K.5.P ",
"T $XT ` LXO...x.yXiXL.9XwX!.I ] o.x.Q t [ A eXn.iXI.P.d.9XF.vXtXG z.b.c.I.( ^ v.u.L.wXdXsXqXU.Y.U.f.K P.L 5X{.|.J.V.H.3.Y.K.s.7.",
" .$XT ` 1X....O.pXqXiXqXgX!.' ..!.>XU t [ A rXz.jXsXY.d.9XF.kXn.E.z.:Xc.iXz.( z.u.L.dXeXwX9XP.U.^.v.P U.} J.{.; |.K.K.C.L.K.a.W.",
"x.$XXX..1X] X.o.fXiXiXiXeXx. .] NX>XY Q { A yX!.yXqXwXI.9Xc.kXn.z.z.:XI.gX:Xx.v.f.F.dXeX9XqXP.U._.Q.P U.E.V.7X{.0XL.H.H.Y.8XY.(.",
"_ $X$XT 1X .X.>XwXpXpXqXfXQ.{  .BXNXI Y  .A yXx.CXU.jXH.5XU.yX:X( ^ b.b.vXkX>XrXL.qXfXcX9XeX).~._.E.K U.[ H.G.0XJ.9XL.H.T.9XY.P.",
"T &X$X .2X..X.yXpXfXeX9XeXx. ...AX-XI U  .! yX-XuXpXqXY.0Xn.uXtX} A ( ( nXkX,XiXI.wXfXcXqXfX).~.tXE.[ U.[ 8XH.vX0X8XL.L.Y.K.P.P.",
"..&X$X..1XX.#XyXyXcXeXrXqXO.o.@XAXXXY U  .z.kXyXpXqXP.f.wXU.lX^.( } } >XMXxXlXU.L.wXgXpX9XeX^./.aXE.} n.E.8XpXnX; 8XiXI.U.9Xf.(.",
"X.%X%X@X<XX.#XtXcXgXyXpXfXO.o...ZX%XY U o.:XzXyXuXI.Q.} 9Xv.lX>Xx.} T.nXPXkX,Xv.v.gXdXvXeXiX/.^.uXQ.E.:XT.J.8XMX8X8XpXiXiX0XP.W.",
"OX$X-X%X<X@X#X,XcXgXyXeXdXn.O.%XZX<X] T O.-XkXrXuXL.E.} 6XrXlXn.z.z.qXdXmXnXkXz.U.fXpXgXeXeX/.VXuXNX| I.K.H.K.8X7X8XqXT.pXwXZ.(.",
"OX*X;XXX3X@X#X,XcXgXpXfXgXrX>XVXZX<X] T ..x.rXU.pXv.~.p.wXeXlXn.x.qX9XwXdXgXsXz.iXdXvXvXpXfX/.!.CX,Xo.iXH.L.Y.0X7XK.eXL.iXqX(.~.",
"OX*X%XXX2X@X#X,XkXzXyXpXgXtX>XNXZX3XZX-X..-XtX_ lXiX~.p.dXdXlXuX>X:XvXdXsX0XsXz.iXfXvXnXeXfX_.VXBXBXO.iXT.U.Y.|.7XK.qXL.T.eXP.).",
"&X*X%X<X2X#X#X,XlXLXyXcXgXuXBX&XuXnXnXdXx.:XyX` AXqX~.v.gXpXlXkX>X>XwXqXnX0XgX:XiXpXgXLXgXgX_.SXCXBX>XpXiXU.v.dX0X9X0XrXrXjXqX~.",
"*X+X*X2X2XOX&X1XzXLXcXcXnXcX&X&XMXwXgXwX5X-XyX-XAXpXU.n.fXtXlXuX>X_ qXqXnXfXdXeXrXeXvXLXvXmX^.VXFXDXVXvXvXrXiX|.7XqX0XT.yXmXpX~.",
"$X$XoX3XHXOX&XxXzXLXcXvXmXbX&XBXeX0XhXdXnX:XcX>X1XyX~.n.dXrXxXVXrXx.pXwXPXfXeXdXrXvXvXLXvXgXSXSXMXtXVXbXlXaXeXdXwXeXeXT.aXfXiX~.",
"$X$X<X<XHX$X#XxXlXLXcXnXnXCX&X3XdXyXdXgXmXkXnX-XFXpX^.rXjXfXxX>X:Xx.dXeXmXdXwXcXrXpXbXLXvXvXDXuXMXCX,XDXNXSXU.pXdX9XeXP.pXfXiX).",
"oX+XoX<XHX*X*XnXzXLXnXcXmX&XBXlXyXcXjX,XcXgXkXXXGXyXaXrXjXdXKXVX` ` gXyXdXgXjXeX>XyXDXmXbXnXDXlXGXAXuXDXNXtXiXfXjXU.P.T.cXgX9X_.",
"<X+XoXoXHX*X*XmXzXPXmXqXLXBX#X1XuXwXsX,XyXkXzX-XMXpXcXtXnXpXKX#XT ` pXyXjXLXjXeXuXkXDXzXvXLXFXlXIXAXAXbXDXaXeXqXjXQ.^.pXlXgXiX~.",
"sX*XoX*XHX*X*XmXnXmXzXgXmXCX#XZXfX1XjX;X;XyXLX:XnXpXvXtXnXkXKX#XT ;XcXtXnXvXdXdXyXkXCXKXcXLXDXMXPXZXZXnXMXaXqXqXJX~.v.pXFXcXT.).",
" XoXOXZXHX*XZXzXLXLXnXjXmXlXBX*XlXkXgXoX1XyXLXpXxXbXnXtXvXnXKX#X.XcXyX,XcXgXsXgXvXcXFXPXgXLXFXMXPXIX1XmXnXtXiXpXLXrXU.iXFXpXU.~.",
"sX;XOX3XHX*XGXKXLXPXmXzXLXGXZX=XZXkXgX<X3XXXzXkXGXlXbXpXnXnXKXBXXXcXkX2XjXgXdXjXyXyXMXKXmXLXFXGXIXxXvXnXbXbXpXwXJXfXpXiXlXpXU.~.",
"|.vX<XoX=X*XKXKXPXZXlXzXLX3XZX*XxXjXhXlX1X;XzX3XKXxXbXaXgXkXKXBX1XjXzX2XPXmXjXjXuX,XxXKXLXLXFXFXMXnXvXnXvXDXtXwX XgXfXfXnXgXiX_."
};
